<?xml version="1.0" encoding="UTF-8"?>
<svg xmlns="http://www.w3.org/2000/svg" xmlns:xlink="http://www.w3.org/1999/xlink" width="22pt" height="22pt" viewBox="0 0 22 22" version="1.1">
    <g id="surface1">
        <path style=" stroke:none;fill-rule:nonzero;fill:rgb(0%,0%,0%);fill-opacity:1;" d="M 9.167969 1.328125 L 12.84375 1.328125 L 12.84375 1.945312 L 14.171875 1.945312 L 14.171875 1.242188 C 14.171875 0.558594 13.617188 0 12.933594 0 L 9.082031 0 C 8.398438 0 7.839844 0.558594 7.839844 1.242188 L 7.839844 1.945312 L 9.167969 1.945312 Z M 9.167969 1.328125 "/>
        <path style=" stroke:none;fill-rule:nonzero;fill:rgb(0%,0%,0%);fill-opacity:1;" d="M 17.238281 7.207031 L 4.773438 7.207031 C 4.433594 7.207031 4.164062 7.5 4.191406 7.839844 L 5.234375 20.726562 C 5.292969 21.445312 5.890625 22 6.613281 22 L 15.402344 22 C 16.121094 22 16.722656 21.445312 16.78125 20.726562 L 17.824219 7.839844 C 17.851562 7.5 17.582031 7.207031 17.238281 7.207031 Z M 7.792969 20.625 C 7.777344 20.625 7.765625 20.625 7.75 20.625 C 7.402344 20.625 7.109375 20.355469 7.089844 20.003906 L 6.4375 9.425781 C 6.414062 9.058594 6.691406 8.742188 7.058594 8.722656 C 7.421875 8.699219 7.738281 8.976562 7.761719 9.34375 L 8.414062 19.921875 C 8.4375 20.289062 8.15625 20.601562 7.792969 20.625 Z M 11.679688 19.960938 C 11.679688 20.328125 11.378906 20.625 11.015625 20.625 C 10.648438 20.625 10.351562 20.328125 10.351562 19.960938 L 10.351562 9.382812 C 10.351562 9.015625 10.648438 8.71875 11.015625 8.71875 C 11.378906 8.71875 11.679688 9.015625 11.679688 9.382812 Z M 15.578125 9.421875 L 14.953125 20 C 14.933594 20.355469 14.640625 20.625 14.292969 20.625 C 14.277344 20.625 14.265625 20.625 14.253906 20.625 C 13.886719 20.605469 13.605469 20.289062 13.628906 19.921875 L 14.253906 9.34375 C 14.273438 8.976562 14.585938 8.699219 14.953125 8.71875 C 15.320312 8.742188 15.597656 9.054688 15.578125 9.421875 Z M 15.578125 9.421875 "/>
        <path style=" stroke:none;fill-rule:nonzero;fill:rgb(0%,0%,0%);fill-opacity:1;" d="M 19.535156 5.160156 L 19.101562 3.851562 C 18.984375 3.507812 18.660156 3.273438 18.296875 3.273438 L 3.714844 3.273438 C 3.351562 3.273438 3.027344 3.507812 2.914062 3.851562 L 2.476562 5.160156 C 2.394531 5.410156 2.503906 5.667969 2.707031 5.796875 C 2.789062 5.847656 2.890625 5.878906 2.996094 5.878906 L 19.015625 5.878906 C 19.125 5.878906 19.222656 5.847656 19.304688 5.796875 C 19.511719 5.667969 19.621094 5.410156 19.535156 5.160156 Z M 19.535156 5.160156 "/>
    </g>
</svg>
